<svg xmlns="http://www.w3.org/2000/svg" width="1188.385" height="1063.385"><path d="M2.828 1063.385 0 1060.556l500.278-500.278 277.754-277.754a14.93 14.93 0 0 1-3.694-7.232 14.99 14.99 0 0 1 3.379-12.785 15.22 15.22 0 0 1 .722-.775 14.93 14.93 0 0 1 7.653-4.101 14.99 14.99 0 0 1 12.786 3.378 15.219 15.219 0 0 1 .352.317L1000.556 60l2.829 2.829L801.79 264.422a14.93 14.93 0 0 1 1.963 4.963 14.99 14.99 0 0 1-3.379 12.786 15.22 15.22 0 0 1-.723.774 14.93 14.93 0 0 1-7.653 4.102c-.974.195-1.963.292-2.953.292a14.951 14.951 0 0 1-7.916-2.256L503.106 563.107 2.828 1063.385Zm185-60-2.828-2.829 490.118-490.118a14.93 14.93 0 0 1-2.78-6.146c-.95-4.752.417-9.876 4.101-13.56a14.93 14.93 0 0 1 7.653-4.101 15.073 15.073 0 0 1 2.954-.292 14.951 14.951 0 0 1 9.099 3.073L1185.556 0l2.829 2.828L698.974 492.24a14.93 14.93 0 0 1 2.78 6.146c.95 4.753-.418 9.876-4.102 13.56a14.953 14.953 0 0 1-10.606 4.394 14.951 14.951 0 0 1-9.099-3.073l-490.119 490.118Z" fill="rgba(128, 183, 179, 1)" fill-rule="evenodd" data-name="Ellipse 1 copy"/></svg>